<svg xmlns="http://www.w3.org/2000/svg" viewBox="0 0 755.7 423.1"><style>.pb{fill:#616161}.o{fill:#fafafa}</style><g fill="#fafafa" stroke="#616161" stroke-width="6" stroke-miterlimit="10"><path id="bg" d="M650.5 420.2H104c-56.1 0-101.6-45.4-101.6-101.5v-214C2.4 48.6 47.9 3.1 104 3.1h546.6c56.1 0 101.6 45.5 101.6 101.6v214c-.1 56.1-45.6 101.5-101.7 101.5z"/><path class="pb" d="M231.9 54.9c3.1-2.5 7.7-2.4 10.2-.1.7.7 1.1 1.6 1.2 2.6.1 1.7.4 5.2.7 9.1.8 11.8 2.7 15.4 10 18.7 4.4 2 6.9 2.2 50.1 2.8 49.5.8 57.3 1.6 65.7 6.5 13.8 8.1 9.8 31-8 45.4-7 5.6-23 14.2-37.3 19.9-15 5.9-62.8 22.5-96.4 33.4-30.7 10-36.6 12.7-41.5 19.1-1.5 1.9-7.5 14.2-13.5 27.3-24.6 54.5-58.5 122.1-64 127.7-4.5 4.6-9.4 3.6-12.6-2.6-1.6-3.2-5-52.8-3.9-58.4 1.1-6 2.7-6.7 13.1-6 18.9 1.4 22.5-1.7 35.8-29.9 8.4-17.7 9-19.5 9.3-26.5.4-6.2.1-8-1.6-10.7-3.4-5.4-6.4-6.7-17.3-7.3-11.1-.7-13.1-1.8-13.1-7.1 0-5.8 4-8.1 26.6-15.4 11.2-3.6 22.4-7.8 24.9-9.4 7.7-4.9 10.3-9.7 23.4-42.6 5.9-14.7 6.9-18.1 7.2-24.6.5-9.2-1.3-13.9-6.7-17.4-5.4-3.6-14-4.5-42.3-4.5-14.1 0-26.8-.4-28.2-1-5.9-2.2-6.9-9.4-1.8-12.8 2.3-1.5 7.3-1.8 41.7-2.3 32.6-.5 39.9-.9 44.3-2.3 7.8-2.5 12-7.2 17.1-19.4 2.6-6.1 5.4-11 6.9-12.2z"/><path class="o" d="M338.2 106.7c4.7 1.8 9.8 6.8 10.6 10.3 1.8 8.3-3.8 16.2-15.1 21.3-19.7 9-60.8 24.5-85.8 32.5-18.7 5.9-27.2 5.5-33.7-1.5 0 0-.1 0-.1-.1-2.2-3-3.1-6.6-2.5-10.2.1-.5.1-1 .2-1.6.1-.7.3-1.5.4-2.2.4-1.6 1.2-4.9 2.1-8.4 2.6-10.4 6.6-20.4 12-29.6 6-10.2 8.7-10.5 18.9-11.7 1.9-.3 22.9-.4 46.5-.3 33 .2 43.8.5 46.5 1.5z"/><path class="pb" d="M516.5 54.4c-1.5 1.2-4.3 6.1-6.8 12-5 11.8-6.6 14.1-12.5 17.6-6.1 3.5-16.1 4.3-54.5 4.4-28 0-31.9.2-35 1.8-6.5 3.2-6.3 10.8.3 13.2 1.8.6 13.4 1 28.6 1 28.2 0 36.8.9 42.2 4.5 5.4 3.5 7.2 8.2 6.7 17.4-.3 6.7-1.3 9.9-7.8 26.1-4.1 10.1-9.5 22.5-12 27.5-6.8 13.5-8.3 14.4-42.5 25.2-16.4 5.1-20.5 7.7-20.5 13 0 4.8 2.5 7 11.8 10.5 11 4.2 15.5 8.3 17.2 16 1.6 7.3 0 13.5-8.3 30.8-7.1 15.1-11.1 20.4-17.5 23.3-3.8 1.6-5.8 1.8-14.5 1.2-14.8-1-14.2-1.7-14 19.2.3 22 1.8 41.1 3.6 45.5 1.7 3.9 5.8 6 9.4 4.7 1.1-.4 3.4-2.4 5-4.5 6.2-8.2 10-11.8 14.3-13.8 4.5-2.1 5.6-2.1 116.5-2.7 121.2-.6 117.5-.4 127.5-6 6.3-3.5 8.5-7.8 8.5-16.5-.1-5.9-.6-8.2-3.3-13.7-5.9-11.9-20.9-23.3-42.8-32.3-13.7-5.7-63.8-23.2-102.6-35.9-25-8.1-30.2-10.2-33.7-13.1-4-3.4-6.1-8-6.1-13.3 0-4.8 3.9-11 8.7-13.8 2.5-1.5 19.9-7.7 38.7-13.8 91.4-30.1 115-40 129.5-54.4 14.6-14.7 16.1-35.2 3.1-41.8-9.4-4.8-16.3-5.5-65-6.2-43.3-.6-45.7-.8-50.1-2.8-7.3-3.3-9.2-6.9-10-18.7-.3-3.9-.6-7.4-.7-9.1-.1-1-.5-2-1.2-2.6-2.5-2.3-7.1-2.4-10.2.1z"/><path class="o" d="M622.7 106.3c4.7 1.8 9.8 6.8 10.6 10.3 1.8 8.3-3.8 16.2-15.1 21.3-19.7 9-60.8 24.5-85.8 32.5-18.7 5.9-27.2 5.5-33.7-1.5 0 0-.1 0-.1-.1-2.2-3-3.1-6.6-2.5-10.2.1-.5.1-1 .2-1.6.1-.7.3-1.5.4-2.2.4-1.6 1.2-4.9 2.1-8.4 2.6-10.4 6.6-20.4 12-29.6 6-10.2 8.7-10.5 18.9-11.7 1.9-.3 22.9-.4 46.5-.3 33 .2 43.8.5 46.5 1.5zm-116 151.4c38.5 12.5 80.9 27.7 101.4 36.5 16.7 7.2 22.6 13.7 21.3 23.4-.7 5.5-3.1 8.7-8.5 11.1l-3.8 1.8c-.6.3-1.2.4-1.8.4H446.7c-3.6 0-7.2-.9-10.4-2.5-6.9-3.6-9.8-9.2-9.2-17.7.4-5.2 2-9.6 10.8-28.4 14.8-31.5 17.5-34.2 33.4-33.5 7.9.3 11.9 1.3 35.4 8.9z"/></g></svg>